<?xml version="1.0" encoding="UTF-8"?>
<!DOCTYPE svg PUBLIC "-//W3C//DTD SVG 1.1//EN" "http://www.w3.org/Graphics/SVG/1.1/DTD/svg11.dtd">
<svg version="1.1" id="Layer_1" xmlns="http://www.w3.org/2000/svg" xmlns:xlink="http://www.w3.org/1999/xlink" x="0px" y="0px" width="24px" height="24px" viewBox="0 0 24 24" enable-background="new 0 0 24 24" xml:space="preserve">
  <g id="icon">
    <circle cx="12" cy="12" r="10.9899" fill="#48CFAE"/>
    <path d="M19.7711,4.2289c-0.015,-0.015,-0.0305,-0.0295,-0.0456,-0.0444l-15.541,15.541c0.0149,0.0151,0.0294,0.0305,0.0444,0.0456c4.2918,4.2918,11.2503,4.2918,15.5421,0S24.0629,8.5208,19.7711,4.2289z" fill="#36BC9B"/>
    <path d="M17.6,11h-4.6V6.4c0,-0.22,-0.18,-0.4,-0.4,-0.4h-1.2c-0.22,0,-0.4,0.18,-0.4,0.4v4.6H6.4c-0.22,0,-0.4,0.18,-0.4,0.4v1.2c0,0.22,0.18,0.4,0.4,0.4h4.6v4.6c0,0.22,0.18,0.4,0.4,0.4h1.2c0.22,0,0.4,-0.18,0.4,-0.4v-4.6h4.6c0.22,0,0.4,-0.18,0.4,-0.4v-1.2C18,11.18,17.82,11,17.6,11z" fill="#FFFFFF"/>
  </g>
</svg>
