<?xml version="1.0" encoding="UTF-8"?>
<!DOCTYPE svg PUBLIC "-//W3C//DTD SVG 1.1//EN" "http://www.w3.org/Graphics/SVG/1.1/DTD/svg11.dtd">
<svg version="1.1" id="Layer_1" xmlns="http://www.w3.org/2000/svg" xmlns:xlink="http://www.w3.org/1999/xlink" x="0px" y="0px" width="24px" height="24px" viewBox="0 0 24 24" enable-background="new 0 0 24 24" xml:space="preserve">
  <g id="icon">
    <path d="M21.8913,18.3362c-0.502,-2.5249,-1.3949,-2.5669,-6.2776,-4.2853c-0.7129,-0.2669,-0.9142,-0.6508,-0.8608,-1.1988c1.3773,-1.6407,2.2071,-4.2949,2.2071,-6.1504c0,-2.8735,-0.9839,-4.6936,-5.0141,-4.6936c-0.0166,0,0.0054,0,0,0c-4.0302,0,-4.9331,1.8201,-4.9331,4.6936c0,1.8555,0.8266,4.5045,2.2039,6.1452c0.0534,0.548,-0.1495,0.9345,-0.8624,1.2014c-4.8827,1.7184,-5.7764,1.7617,-6.2784,4.2866c-0.1509,1.0149,-0.1761,1.4403,0.2258,2.5649C2.7538,22.1656,9.1472,22,11.9458,22c0.0113,0,-0.0192,0,0,0c2.7986,0,9.267,0.1662,9.7193,-1.0996C22.0669,19.7759,22.0422,19.3511,21.8913,18.3362z" fill-rule="evenodd" fill="#4B89DC"/>
    <path d="M2.1036,18.3362c0.502,-2.5249,1.3949,-2.5669,6.2776,-4.2853c0.7129,-0.2669,0.9142,-0.6508,0.8608,-1.1988c-1.3773,-1.6407,-2.1816,-4.2949,-2.1816,-6.1504C7.0604,3.8282,8,2.0081,12.1,2.0081V22c-2.9,0,-9.2924,0.1662,-9.7447,-1.0996C1.9534,19.7759,1.9526,19.3511,2.1036,18.3362z" fill-rule="evenodd" fill="#5D9CEC" opacity="0.8"/>
  </g>
</svg>
