<?xml version="1.0" encoding="UTF-8"?>
<!DOCTYPE svg PUBLIC "-//W3C//DTD SVG 1.1//EN" "http://www.w3.org/Graphics/SVG/1.1/DTD/svg11.dtd">
<svg version="1.1" id="Layer_1" xmlns="http://www.w3.org/2000/svg" xmlns:xlink="http://www.w3.org/1999/xlink" x="0px" y="0px" width="24px" height="24px" viewBox="0 0 24 24" enable-background="new 0 0 24 24" xml:space="preserve">
  <g id="main">
    <g id="icon">
      <path d="M9.577,1.092L8.994,1.195L8.475,1.337L8.016,1.518L7.614,1.736L7.266,1.989L6.968,2.277L6.718,2.599L6.511,2.954L6.217,3.756L6.059,4.675L6.013,5.702L6.051,6.431L6.163,7.214L6.347,8.029L6.598,8.855L6.914,9.671L7.291,10.46L7.727,11.19L8.217,11.85L8.205,12.23L8.073,12.55L7.797,12.82L7.354,13.05L4.384,14.09L3.354,14.49L2.572,14.89L1.996,15.32L1.582,15.84L1.289,16.5L1.076,17.33L0.991,18.01L0.9814,18.58L1.076,19.17L1.302,19.9L1.454,20.12L1.731,20.31L2.12,20.47L2.606,20.61L3.814,20.8L5.244,20.92L8.322,21.01L10.95,21L13.58,21.01L14.21,20.99L14.17,20.85L14.04,20.19L14,19.5L14.03,18.94L14.11,18.39L14.25,17.87L14.43,17.36L14.66,16.88L14.94,16.43L15.26,16L15.61,15.61L16,15.26L16.43,14.94L16.88,14.66L17.36,14.43L17.87,14.25L17.94,14.23L17.58,14.09L14.61,13.05L14.17,12.83L13.9,12.56L13.76,12.23L13.75,11.85L14.24,11.19L14.68,10.46L15.06,9.674L15.37,8.857L15.62,8.03L15.81,7.215L15.92,6.431L15.96,5.702L15.91,4.675L15.74,3.756L15.44,2.954L15.22,2.599L14.96,2.277L14.66,1.989L14.3,1.736L13.89,1.518L13.43,1.337L12.91,1.195L12.32,1.092L10.95,1.008zz" fill-rule="evenodd" fill="#4B89DC"/>
      <path d="M9.706,1.092L9.112,1.195L8.583,1.337L8.114,1.518L7.704,1.736L7.347,1.989L7.043,2.277L6.786,2.599L6.574,2.954L6.271,3.756L6.109,4.675L6.06,5.702L6.098,6.431L6.208,7.215L6.388,8.03L6.635,8.857L6.946,9.674L7.32,10.46L7.753,11.19L8.242,11.85L8.23,12.23L8.099,12.56L7.824,12.83L7.381,13.05L4.411,14.09L3.382,14.5L2.6,14.89L2.023,15.32L1.61,15.84L1.317,16.5L1.104,17.34L1.023,18.01L1.022,18.58L1.125,19.17L1.355,19.9L1.507,20.12L1.785,20.31L2.174,20.47L2.661,20.61L3.873,20.8L5.31,20.92L8.418,21.01L11.1,21L11.1,1.008zz" fill-rule="evenodd" fill="#5D9CEC" opacity="0.8"/>
    </g>
    <g id="overlay">
      <circle cx="19.5" cy="19.5" r="4.4899" fill="#48CFAE"/>
      <path d="M22.6749,16.3251c-0.0061,-0.0061,-0.0124,-0.0121,-0.0186,-0.0182l-6.3493,6.3493c0.0061,0.0062,0.012,0.0125,0.0182,0.0186c1.7534,1.7534,4.5963,1.7534,6.3497,0S24.4283,18.0786,22.6749,16.3251z" fill="#36BC9B" opacity="0.7"/>
      <path d="M21.8,19h-1.8v-1.8c0,-0.1105,-0.0895,-0.2,-0.2,-0.2h-0.6c-0.1105,0,-0.2,0.0895,-0.2,0.2v1.8h-1.8c-0.1105,0,-0.2,0.0895,-0.2,0.2v0.6c0,0.1105,0.0895,0.2,0.2,0.2h1.8v1.8c0,0.1105,0.0895,0.2,0.2,0.2h0.6c0.1105,0,0.2,-0.0895,0.2,-0.2v-1.8h1.8c0.1105,0,0.2,-0.0895,0.2,-0.2v-0.6C22,19.0895,21.9105,19,21.8,19z" fill="#FFFFFF"/>
    </g>
  </g>
</svg>
