<?xml version="1.0" encoding="UTF-8"?>
<!DOCTYPE svg PUBLIC "-//W3C//DTD SVG 1.1//EN" "http://www.w3.org/Graphics/SVG/1.1/DTD/svg11.dtd">
<svg version="1.1" id="Layer_1" xmlns="http://www.w3.org/2000/svg" xmlns:xlink="http://www.w3.org/1999/xlink" x="0px" y="0px" width="24px" height="24px" viewBox="0 0 24 24" enable-background="new 0 0 24 24" xml:space="preserve">
  <g id="icon">
    <path d="M18.8099,19.7033c-0.4496,-2.2724,-1.2491,-2.3102,-5.6216,-3.8568c-0.6384,-0.2402,-0.8187,-0.5857,-0.7709,-1.0789c1.2333,-1.4766,1.9765,-3.8654,1.9765,-5.5353c0,-2.5861,-0.8811,-4.2242,-4.4902,-4.2242c-0.0149,0,0.0048,0,0,0c-3.6091,0,-4.4176,1.6381,-4.4176,4.2242c0,1.6699,0.7402,4.054,1.9736,5.5307c0.0478,0.4932,-0.1339,0.841,-0.7723,1.0812c-4.3725,1.5465,-5.1728,1.5856,-5.6223,3.8579c-0.1352,0.9134,-0.1577,1.2963,0.2022,2.3084c0.4051,1.1392,6.1303,0.9902,8.6365,0.9902c0.0101,0,-0.0172,0,0,0c2.5061,0,8.2985,0.1496,8.7036,-0.9896C18.9672,20.999,18.9451,20.6167,18.8099,19.7033z" fill-rule="evenodd" fill="#4B89DC"/>
    <path d="M1.0901,19.7033c0.4496,-2.2724,1.2491,-2.3102,5.6216,-3.8568c0.6384,-0.2402,0.8187,-0.5857,0.7709,-1.0789C6.2492,13.291,5.508,10.9022,5.508,9.2323c0,-2.5861,0.892,-4.2242,4.492,-4.2242v17.9926c-2.5,0,-8.3004,0.1496,-8.7055,-0.9896C0.9347,20.999,0.9549,20.6167,1.0901,19.7033z" fill-rule="evenodd" fill="#5D9CEC" opacity="0.8"/>
    <path d="M22.9099,15.7033c-0.4496,-2.2724,-1.2491,-2.3102,-5.6216,-3.8568c-0.6384,-0.2402,-0.8187,-0.5857,-0.7709,-1.0789c1.2333,-1.4766,1.9765,-3.8654,1.9765,-5.5353c0,-2.5861,-0.8811,-4.2242,-4.4902,-4.2242c-2.9984,0,-4.063,1.1314,-4.3377,2.997c0.109,-0.0031,0.2192,-0.0051,0.332,-0.0051c0.0019,0,0.0038,0,0.0057,0c3.7457,0,5.4902,1.6641,5.4902,5.2283c0,1.5967,-0.6282,3.9656,-1.8337,5.6871c0.4283,0.1514,0.8221,0.2892,1.1842,0.4151c3.1013,1.0776,4.3206,1.5029,4.9001,3.5614c1.5429,-0.1237,2.7832,-0.3753,2.9629,-0.8807C23.0672,16.999,23.0451,16.6167,22.9099,15.7033z" fill-rule="evenodd" fill="#3D73AD"/>
  </g>
</svg>
